<?xml version="1.0" encoding="UTF-8" standalone="no"?>
<!DOCTYPE svg PUBLIC "-//W3C//DTD SVG 1.1//EN"
 "http://www.w3.org/Graphics/SVG/1.1/DTD/svg11.dtd">
<!-- Generated by graphviz version 2.38.0 (20140413.2041)
 -->
<!-- Title: mne&#45;python flow diagram Pages: 1 -->
<svg width="779pt" height="611pt"
 viewBox="0.00 0.00 779.00 611.10" xmlns="http://www.w3.org/2000/svg" xmlns:xlink="http://www.w3.org/1999/xlink">
<g id="graph0" class="graph" transform="scale(1 1) rotate(0) translate(-4 615.1)">
<title>mne&#45;python flow diagram</title>
<polygon fill="white" stroke="none" points="4,-4 4,-615.1 783,-615.1 783,-4 4,-4"/>
<g id="clust1" class="cluster"><title>cluster0</title>
<polygon fill="none" stroke="black" points="8,-384.1 8,-611.1 257,-611.1 257,-384.1 8,-384.1"/>
<text text-anchor="start" x="65.9727" y="-596.9" font-family="Arial" font-size="14.00">Structural information</text>
<text text-anchor="start" x="93.2458" y="-586.9" font-family="Arial" font-style="italic" font-size="9.00">Freesurfer / MNE&#45;C</text>
</g>
<g id="clust2" class="cluster"><title>cluster1</title>
<polygon fill="none" stroke="black" points="335,-8 335,-84.099 647,-84.099 647,-8 335,-8"/>
<text text-anchor="middle" x="491" y="-68.8983" font-family="Arial" font-size="14.00">Data Analysis</text>
</g>
<!-- T1 -->
<g id="node1" class="node"><title>T1</title>
<polygon fill="#ff6347" stroke="none" points="207,-572.1 153,-572.1 153,-536.1 207,-536.1 207,-572.1"/>
<text text-anchor="middle" x="180" y="-550.949" font-family="Arial" font-size="14.00">T1</text>
</g>
<!-- recon -->
<g id="node2" class="node"><title>recon</title>
<polygon fill="#ff6347" stroke="none" points="248.873,-500.1 111.127,-500.1 111.127,-464.1 248.873,-464.1 248.873,-500.1"/>
<text text-anchor="middle" x="180" y="-478.949" font-family="Arial" font-size="14.00">Freesurfer surfaces</text>
</g>
<!-- T1&#45;&gt;recon -->
<g id="edge1" class="edge"><title>T1&#45;&gt;recon</title>
<path fill="none" stroke="black" d="M180,-535.8C180,-528.08 180,-518.81 180,-510.21"/>
<polygon fill="black" stroke="black" points="183.5,-510.2 180,-500.2 176.5,-510.2 183.5,-510.2"/>
</g>
<!-- bem -->
<g id="node3" class="node"><title>bem</title>
<polygon fill="#ff6347" stroke="none" points="124,-428.1 70,-428.1 70,-392.1 124,-392.1 124,-428.1"/>
<text text-anchor="middle" x="97" y="-406.949" font-family="Arial" font-size="14.00">BEM</text>
</g>
<!-- recon&#45;&gt;bem -->
<g id="edge2" class="edge"><title>recon&#45;&gt;bem</title>
<path fill="none" stroke="black" d="M159.48,-463.8C149.13,-455.06 136.41,-444.34 125.16,-434.85"/>
<polygon fill="black" stroke="black" points="127.18,-431.975 117.28,-428.2 122.665,-437.324 127.18,-431.975"/>
</g>
<!-- src -->
<g id="node4" class="node"><title>src</title>
<polygon fill="#ff6347" stroke="none" points="236.5,-428.1 141.5,-428.1 141.5,-392.1 236.5,-392.1 236.5,-428.1"/>
<text text-anchor="start" x="152.312" y="-412" font-family="Arial" font-size="12.00">Source space</text>
<text text-anchor="start" x="149.728" y="-402.4" font-family="Arial" font-style="italic" font-size="9.00">mne.SourceSpaces</text>
</g>
<!-- recon&#45;&gt;src -->
<g id="edge3" class="edge"><title>recon&#45;&gt;src</title>
<path fill="none" stroke="black" d="M182.22,-463.8C183.22,-456.08 184.41,-446.81 185.51,-438.21"/>
<polygon fill="black" stroke="black" points="188.993,-438.565 186.8,-428.2 182.05,-437.671 188.993,-438.565"/>
</g>
<!-- fwd -->
<g id="node11" class="node"><title>fwd</title>
<defs>
<linearGradient id="l_0" gradientUnits="userSpaceOnUse" x1="189" y1="-356.1" x2="189" y2="-320.1" >
<stop offset="0" style="stop-color:#ff6347;stop-opacity:1.;"/>
<stop offset="1" style="stop-color:#7bbeca;stop-opacity:1.;"/>
</linearGradient>
</defs>
<polygon fill="url(#l_0)" stroke="none" points="241.5,-356.1 136.5,-356.1 136.5,-320.1 241.5,-320.1 241.5,-356.1"/>
<text text-anchor="start" x="144.647" y="-340" font-family="Arial" font-size="12.00">Forward solution</text>
<text text-anchor="start" x="146.237" y="-330.4" font-family="Arial" font-style="italic" font-size="9.00">mne.forward.Forward</text>
</g>
<!-- bem&#45;&gt;fwd -->
<g id="edge5" class="edge"><title>bem&#45;&gt;fwd</title>
<path fill="none" stroke="black" d="M119.74,-391.8C131.44,-382.89 145.86,-371.92 158.51,-362.3"/>
<polygon fill="black" stroke="black" points="160.685,-365.043 166.52,-356.2 156.444,-359.474 160.685,-365.043"/>
</g>
<!-- src&#45;&gt;fwd -->
<g id="edge6" class="edge"><title>src&#45;&gt;fwd</title>
<path fill="none" stroke="black" d="M189,-391.8C189,-384.08 189,-374.81 189,-366.21"/>
<polygon fill="black" stroke="black" points="192.5,-366.2 189,-356.2 185.5,-366.2 192.5,-366.2"/>
</g>
<!-- flashes -->
<g id="node5" class="node"><title>flashes</title>
<polygon fill="#ff6347" stroke="none" points="93.9839,-500.1 16.0161,-500.1 16.0161,-464.1 93.9839,-464.1 93.9839,-500.1"/>
<text text-anchor="middle" x="55" y="-478.949" font-family="Arial" font-size="14.00">Flash5/30</text>
</g>
<!-- flashes&#45;&gt;bem -->
<g id="edge4" class="edge"><title>flashes&#45;&gt;bem</title>
<path fill="none" stroke="black" d="M65.382,-463.8C70.265,-455.66 76.187,-445.79 81.579,-436.8"/>
<polygon fill="black" stroke="black" points="84.595,-438.576 86.737,-428.2 78.5919,-434.976 84.595,-438.576"/>
</g>
<!-- ml -->
<g id="node6" class="node"><title>ml</title>
<text text-anchor="start" x="535.302" y="-35.9" font-family="Arial" font-size="12.00">Machine Learning</text>
<text text-anchor="start" x="554.73" y="-26.3" font-family="Arial" font-style="italic" font-size="9.00">mne.decoding</text>
</g>
<!-- con -->
<g id="node7" class="node"><title>con</title>
<text text-anchor="start" x="352.319" y="-35.9" font-family="Arial" font-size="12.00">Connectivity</text>
<text text-anchor="start" x="351.485" y="-26.3" font-family="Arial" font-style="italic" font-size="9.00">mne.connectivity</text>
</g>
<!-- stat -->
<g id="node8" class="node"><title>stat</title>
<text text-anchor="start" x="452.994" y="-35.9" font-family="Arial" font-size="12.00">Statistics</text>
<text text-anchor="start" x="457.493" y="-26.3" font-family="Arial" font-style="italic" font-size="9.00">mne.stats</text>
</g>
<!-- inv -->
<g id="node9" class="node"><title>inv</title>
<defs>
<linearGradient id="l_1" gradientUnits="userSpaceOnUse" x1="284" y1="-278.1" x2="284" y2="-242.1" >
<stop offset="0" style="stop-color:#7bbeca;stop-opacity:1.;"/>
<stop offset="1" style="stop-color:#ff6347;stop-opacity:1.;"/>
</linearGradient>
</defs>
<polygon fill="url(#l_1)" stroke="none" points="367,-278.1 201,-278.1 201,-242.1 367,-242.1 367,-278.1"/>
<text text-anchor="start" x="240.31" y="-262" font-family="Arial" font-size="12.00">Inverse operator</text>
<text text-anchor="start" x="209.225" y="-252.4" font-family="Arial" font-style="italic" font-size="9.00">mne.minimum_norm.InverseOperator</text>
</g>
<!-- stc -->
<g id="node12" class="node"><title>stc</title>
<polygon fill="#ff6347" stroke="none" points="453.5,-200.1 350.5,-200.1 350.5,-164.1 453.5,-164.1 453.5,-200.1"/>
<text text-anchor="start" x="358.646" y="-184" font-family="Arial" font-size="12.00">Source estimate</text>
<text text-anchor="start" x="360.232" y="-174.4" font-family="Arial" font-style="italic" font-size="9.00">mne.SourceEstimate</text>
</g>
<!-- inv&#45;&gt;stc -->
<g id="edge7" class="edge"><title>inv&#45;&gt;stc</title>
<path fill="none" stroke="black" d="M310.48,-242.04C327.07,-231.36 348.63,-217.47 366.67,-205.86"/>
<polygon fill="black" stroke="black" points="368.692,-208.721 375.2,-200.36 364.899,-202.838 368.692,-208.721"/>
</g>
<!-- legend -->
<g id="node10" class="node"><title>legend</title>
<polygon fill="#7bbeca" stroke="none" points="653,-262.1 653,-280.1 671,-280.1 671,-262.1 653,-262.1"/>
<text text-anchor="start" x="656.999" y="-268.9" font-family="Arial" font-size="9.00"> &#160;&#160;&#160;</text>
<text text-anchor="start" x="678.734" y="-268.9" font-family="Arial" font-size="9.00">Sensor (M/EEG) space</text>
<polygon fill="#ff6347" stroke="none" points="653,-240.1 653,-258.1 671,-258.1 671,-240.1 653,-240.1"/>
<text text-anchor="start" x="656.999" y="-246.9" font-family="Arial" font-size="9.00"> &#160;&#160;&#160;</text>
<text text-anchor="start" x="679" y="-246.9" font-family="Arial" font-size="9.00">Source (brain) space</text>
</g>
<!-- fwd&#45;&gt;inv -->
<g id="edge8" class="edge"><title>fwd&#45;&gt;inv</title>
<path fill="none" stroke="black" d="M210.56,-319.85C223.55,-309.46 240.29,-296.07 254.5,-284.7"/>
<polygon fill="black" stroke="black" points="256.905,-287.258 262.53,-278.28 252.534,-281.791 256.905,-287.258"/>
</g>
<!-- stc&#45;&gt;con -->
<g id="edge9" class="edge"><title>stc&#45;&gt;con</title>
<path fill="none" stroke="black" d="M400.02,-164.05C397.11,-139.11 391.68,-92.413 388.21,-62.556"/>
<polygon fill="black" stroke="black" points="391.659,-61.9152 387.02,-52.39 384.706,-62.7291 391.659,-61.9152"/>
</g>
<!-- stc&#45;&gt;stat -->
<g id="edge10" class="edge"><title>stc&#45;&gt;stat</title>
<path fill="none" stroke="black" d="M408.89,-164.06C416.41,-145.92 429.1,-116.51 442,-92.099 447.52,-81.66 454.16,-70.518 460.18,-60.874"/>
<polygon fill="black" stroke="black" points="463.305,-62.4809 465.69,-52.158 457.388,-58.7404 463.305,-62.4809"/>
</g>
<!-- tfr -->
<g id="node13" class="node"><title>tfr</title>
<text text-anchor="start" x="458.544" y="-112" font-family="Arial" font-size="12.00">Time&#45;Frequency</text>
<text text-anchor="start" x="461.23" y="-102.4" font-family="Arial" font-style="italic" font-size="9.00">mne.time_frequency</text>
</g>
<!-- stc&#45;&gt;tfr -->
<g id="edge11" class="edge"><title>stc&#45;&gt;tfr</title>
<path fill="none" stroke="black" d="M426.46,-163.97C439.3,-154.99 455.2,-143.86 469.09,-134.13"/>
<polygon fill="black" stroke="black" points="471.251,-136.889 477.44,-128.29 467.239,-131.153 471.251,-136.889"/>
</g>
<!-- tfr&#45;&gt;ml -->
<g id="edge14" class="edge"><title>tfr&#45;&gt;ml</title>
<path fill="none" stroke="black" d="M520.79,-91.913C531.52,-82.093 545.14,-69.63 556.91,-58.872"/>
<polygon fill="black" stroke="black" points="559.304,-61.4254 564.32,-52.093 554.579,-56.2606 559.304,-61.4254"/>
</g>
<!-- tfr&#45;&gt;stat -->
<g id="edge15" class="edge"><title>tfr&#45;&gt;stat</title>
<path fill="none" stroke="black" d="M496.2,-91.913C493.17,-82.935 489.4,-71.747 486,-61.673"/>
<polygon fill="black" stroke="black" points="489.282,-60.4507 482.77,-52.093 482.648,-62.6871 489.282,-60.4507"/>
</g>
<!-- trans -->
<g id="node14" class="node"><title>trans</title>
<defs>
<linearGradient id="l_2" gradientUnits="userSpaceOnUse" x1="322" y1="-428.1" x2="322" y2="-392.1" >
<stop offset="0" style="stop-color:#7bbeca;stop-opacity:1.;"/>
<stop offset="1" style="stop-color:#ff6347;stop-opacity:1.;"/>
</linearGradient>
</defs>
<polygon fill="url(#l_2)" stroke="none" points="379.5,-428.1 264.5,-428.1 264.5,-392.1 379.5,-392.1 379.5,-428.1"/>
<text text-anchor="middle" x="322" y="-406.949" font-family="Arial" font-size="14.00">Head&#45;MRI trans</text>
</g>
<!-- trans&#45;&gt;fwd -->
<g id="edge12" class="edge"><title>trans&#45;&gt;fwd</title>
<path fill="none" stroke="black" d="M289.46,-391.97C271.75,-382.65 249.65,-371.02 230.68,-361.04"/>
<polygon fill="black" stroke="black" points="232.139,-357.853 221.66,-356.29 228.877,-364.046 232.139,-357.853"/>
</g>
<!-- cov -->
<g id="node15" class="node"><title>cov</title>
<polygon fill="#7bbeca" stroke="none" points="367.045,-356.1 258.955,-356.1 258.955,-320.1 367.045,-320.1 367.045,-356.1"/>
<text text-anchor="start" x="266.978" y="-340" font-family="Arial" font-size="12.00">Noise covariance</text>
<text text-anchor="start" x="280.234" y="-330.4" font-family="Arial" font-style="italic" font-size="9.00">mne.Covariance</text>
</g>
<!-- cov&#45;&gt;inv -->
<g id="edge13" class="edge"><title>cov&#45;&gt;inv</title>
<path fill="none" stroke="black" d="M306.42,-319.85C302.82,-310.43 298.29,-298.54 294.24,-287.94"/>
<polygon fill="black" stroke="black" points="297.388,-286.373 290.55,-278.28 290.849,-288.871 297.388,-286.373"/>
</g>
<!-- raw -->
<g id="node16" class="node"><title>raw</title>
<polygon fill="#7bbeca" stroke="none" points="589.5,-572.1 522.5,-572.1 522.5,-536.1 589.5,-536.1 589.5,-572.1"/>
<text text-anchor="start" x="530.652" y="-556" font-family="Arial" font-size="12.00">Raw data</text>
<text text-anchor="start" x="532.241" y="-546.4" font-family="Arial" font-style="italic" font-size="9.00">mne.io.Raw</text>
</g>
<!-- raw&#45;&gt;ml -->
<g id="edge16" class="edge"><title>raw&#45;&gt;ml</title>
<path fill="none" stroke="black" d="M569.78,-535.89C588.86,-510.28 621,-459.9 621,-411.1 621,-411.1 621,-411.1 621,-181.1 621,-138.2 605.46,-90.422 594.26,-61.55"/>
<polygon fill="black" stroke="black" points="597.471,-60.1524 590.51,-52.165 590.97,-62.7498 597.471,-60.1524"/>
</g>
<!-- pre -->
<g id="node17" class="node"><title>pre</title>
<polygon fill="#7bbeca" stroke="none" points="568.5,-500.1 451.5,-500.1 451.5,-464.1 568.5,-464.1 568.5,-500.1"/>
<text text-anchor="start" x="459.636" y="-484" font-family="Arial" font-size="12.00">Preprocessed data</text>
<text text-anchor="start" x="472.229" y="-474.4" font-family="Arial" font-style="italic" font-size="9.00">mne.io.read_raw_*</text>
</g>
<!-- raw&#45;&gt;pre -->
<g id="edge17" class="edge"><title>raw&#45;&gt;pre</title>
<path fill="none" stroke="black" d="M544.63,-535.8C539.28,-527.66 532.8,-517.79 526.89,-508.8"/>
<polygon fill="black" stroke="black" points="529.656,-506.636 521.24,-500.2 523.806,-510.48 529.656,-506.636"/>
</g>
<!-- epo -->
<g id="node18" class="node"><title>epo</title>
<polygon fill="#7bbeca" stroke="none" points="548.063,-428.1 457.937,-428.1 457.937,-392.1 548.063,-392.1 548.063,-428.1"/>
<text text-anchor="start" x="465.969" y="-412" font-family="Arial" font-size="12.00">Epoched data</text>
<text text-anchor="start" x="477.986" y="-402.4" font-family="Arial" font-style="italic" font-size="9.00">mne.Epochs</text>
</g>
<!-- pre&#45;&gt;epo -->
<g id="edge18" class="edge"><title>pre&#45;&gt;epo</title>
<path fill="none" stroke="black" d="M508.27,-463.8C507.5,-456.08 506.57,-446.81 505.71,-438.21"/>
<polygon fill="black" stroke="black" points="509.187,-437.803 504.71,-428.2 502.221,-438.498 509.187,-437.803"/>
</g>
<!-- epo&#45;&gt;ml -->
<g id="edge19" class="edge"><title>epo&#45;&gt;ml</title>
<path fill="none" stroke="black" d="M519.58,-392.05C543.01,-366.06 583,-313.97 583,-261.1 583,-261.1 583,-261.1 583,-181.1 583,-139.72 583,-91.738 583,-62.381"/>
<polygon fill="black" stroke="black" points="586.5,-62.094 583,-52.094 579.5,-62.094 586.5,-62.094"/>
</g>
<!-- epo&#45;&gt;stc -->
<g id="edge20" class="edge"><title>epo&#45;&gt;stc</title>
<path fill="none" stroke="black" d="M486.24,-391.76C465.41,-369.06 430.6,-327.09 414,-284.1 404.79,-260.25 402.16,-231.08 401.61,-210.23"/>
<polygon fill="black" stroke="black" points="405.109,-210.108 401.49,-200.15 398.109,-210.191 405.109,-210.108"/>
</g>
<!-- epo&#45;&gt;tfr -->
<g id="edge22" class="edge"><title>epo&#45;&gt;tfr</title>
<path fill="none" stroke="black" d="M507.89,-391.96C516.14,-360.94 531.45,-293.41 526,-236.1 522.76,-202.03 514.66,-163.43 508.76,-138.26"/>
<polygon fill="black" stroke="black" points="512.118,-137.253 506.39,-128.34 505.31,-138.88 512.118,-137.253"/>
</g>
<!-- epo&#45;&gt;cov -->
<g id="edge21" class="edge"><title>epo&#45;&gt;cov</title>
<path fill="none" stroke="black" d="M457.49,-392.33C430.97,-382.56 397.32,-370.16 369.17,-359.79"/>
<polygon fill="black" stroke="black" points="370.053,-356.385 359.46,-356.21 367.632,-362.953 370.053,-356.385"/>
</g>
<!-- evo -->
<g id="node19" class="node"><title>evo</title>
<polygon fill="#7bbeca" stroke="none" points="517,-278.1 423,-278.1 423,-242.1 517,-242.1 517,-278.1"/>
<text text-anchor="start" x="431.079" y="-262" font-family="Arial" font-size="12.00">Averaged data</text>
<text text-anchor="start" x="444.986" y="-252.4" font-family="Arial" font-style="italic" font-size="9.00">mne.Evoked</text>
</g>
<!-- epo&#45;&gt;evo -->
<g id="edge23" class="edge"><title>epo&#45;&gt;evo</title>
<path fill="none" stroke="black" d="M499.15,-391.83C493.46,-366.32 482.76,-318.33 476.03,-288.13"/>
<polygon fill="black" stroke="black" points="479.422,-287.259 473.83,-278.26 472.589,-288.782 479.422,-287.259"/>
</g>
<!-- evo&#45;&gt;stc -->
<g id="edge24" class="edge"><title>evo&#45;&gt;stc</title>
<path fill="none" stroke="black" d="M454.57,-241.85C445.61,-231.84 434.18,-219.06 424.26,-207.98"/>
<polygon fill="black" stroke="black" points="426.647,-205.398 417.37,-200.28 421.43,-210.066 426.647,-205.398"/>
</g>
<!-- evo&#45;&gt;tfr -->
<g id="edge25" class="edge"><title>evo&#45;&gt;tfr</title>
<path fill="none" stroke="black" d="M473.73,-241.83C479.25,-216.32 489.63,-168.33 496.16,-138.13"/>
<polygon fill="black" stroke="black" points="499.602,-138.773 498.29,-128.26 492.759,-137.297 499.602,-138.773"/>
</g>
</g>
</svg>
